<svg width="120" height="150" viewBox="0 0 120 150" fill="none" xmlns="http://www.w3.org/2000/svg">
<path fill-rule="evenodd" clip-rule="evenodd" d="M15 0H90L120 30V135C120 138.978 118.42 142.794 115.607 145.607C112.794 148.42 108.978 150 105 150H15C11.0218 150 7.20644 148.42 4.3934 145.607C1.58035 142.794 0 138.978 0 135V15C0 11.0218 1.58035 7.20644 4.3934 4.3934C7.20644 1.58035 11.0218 0 15 0ZM82.5 15H15V135H105V37.5H82.5V15ZM22.5 75H37.5L45 97.5L52.5 75H67.5L75 97.5L82.5 75H97.5L82.5 120H67.5L60 97.5L52.5 120H37.5L22.5 75Z" fill="#813347"/>
</svg>
