<svg width="320" height="50" viewBox="0 0 320 50" fill="none" xmlns="http://www.w3.org/2000/svg">
<path fill-rule="evenodd" clip-rule="evenodd" d="M74.2856 0C61.4647 0 51.0713 10.3934 51.0713 23.2143V26.7857C51.0713 39.6066 61.4647 50 74.2856 50C87.1065 50 97.4999 39.6066 97.4999 26.7857V23.2143C97.4999 10.3934 87.1065 0 74.2856 0ZM74.2856 9.28571C68.171 9.28571 63.2141 14.2426 63.2141 20.3571V30.3571C63.2141 36.4717 68.171 41.4286 74.2856 41.4286C80.4002 41.4286 85.357 36.4717 85.357 30.3571V20.3571C85.357 14.2426 80.4002 9.28571 74.2856 9.28571Z" fill="white"/>
<path fill-rule="evenodd" clip-rule="evenodd" d="M216.429 48.9286L235 0.714287H248.572L266.429 48.9286H252.143L248.572 42.5H233.572L230.357 48.9286H216.429ZM241.429 17.5L234.286 33.2143H247.143L241.429 17.5Z" fill="white"/>
<path d="M278.929 1.78571H265.714L285.714 33.5714V49.2857H298.929V33.5714L319.286 1.78571H306.072L292.5 22.5L278.929 1.78571Z" fill="white"/>
<path fill-rule="evenodd" clip-rule="evenodd" d="M0 0.357143V10.3571H17.1429V48.5714H29.6429V10.3571H46.0714V0.357143H0ZM104.286 0.357143V48.5714H116.071V43.2143H129.643C145.071 42.6429 147.976 32.9762 147.5 28.2143V13.2143C147.214 4.92857 137.143 1.19048 132.143 0.357143H104.286ZM155.714 0.357143H167.857L177.5 31.0714L185 11.7857L191.071 31.0714L201.786 0.357143H215.714L198.571 48.5714H187.5L184.643 41.4286L181.429 48.5714H170.714L155.714 0.357143ZM127.5 10.7143H116.071V32.8571H127.5C133.023 32.8571 137.5 28.38 137.5 22.8572V20.7143C137.5 15.1914 133.023 10.7143 127.5 10.7143Z" fill="white"/>
</svg>
