<svg width="42" height="54" viewBox="0 0 42 54" fill="none" xmlns="http://www.w3.org/2000/svg">
<path d="M20.625 0.75C15.1569 0.756451 9.91461 2.93151 6.04807 6.79805C2.18153 10.6646 0.00647283 15.9069 2.19429e-05 21.375C-0.00652723 25.8435 1.45311 30.1908 4.15502 33.75C4.15502 33.75 4.71752 34.4906 4.8094 34.5975L20.625 53.25L36.4481 34.5881C36.5306 34.4888 37.095 33.75 37.095 33.75L37.0969 33.7444C39.7975 30.1868 41.2564 25.8415 41.25 21.375C41.2436 15.9069 39.0685 10.6646 35.202 6.79805C31.3354 2.93151 26.0931 0.756451 20.625 0.75ZM20.625 28.875C19.1417 28.875 17.6916 28.4351 16.4582 27.611C15.2249 26.7869 14.2636 25.6156 13.6959 24.2451C13.1283 22.8747 12.9797 21.3667 13.2691 19.9118C13.5585 18.457 14.2728 17.1206 15.3217 16.0717C16.3706 15.0228 17.707 14.3085 19.1618 14.0191C20.6167 13.7297 22.1247 13.8782 23.4951 14.4459C24.8656 15.0136 26.0369 15.9749 26.861 17.2082C27.6852 18.4416 28.125 19.8916 28.125 21.375C28.1225 23.3634 27.3316 25.2696 25.9256 26.6756C24.5196 28.0815 22.6134 28.8725 20.625 28.875Z" fill="#B54D6C"/>
</svg>
