<svg width="40" height="44" viewBox="0 0 40 44" fill="none" xmlns="http://www.w3.org/2000/svg">
<path d="M20 21.9568C22.13 21.9568 24.2121 21.3252 25.9831 20.1419C27.7541 18.9585 29.1344 17.2766 29.9495 15.3088C30.7646 13.341 30.9778 11.1756 30.5623 9.0866C30.1468 6.99757 29.1211 5.07868 27.615 3.57257C26.1089 2.06647 24.19 1.0408 22.101 0.625268C20.0119 0.209734 17.8466 0.423001 15.8788 1.2381C13.911 2.0532 12.229 3.43352 11.0457 5.20451C9.86237 6.9755 9.23077 9.05762 9.23077 11.1876C9.23077 14.0437 10.3654 16.7829 12.385 18.8026C14.4046 20.8222 17.1438 21.9568 20 21.9568ZM20 25.0337C13.325 25.0337 0 29.1568 0 37.3414V43.4953H40V37.3414C40 29.1568 26.675 25.0337 20 25.0337Z" fill="#B54D6C"/>
</svg>
