<svg width="40" height="58" viewBox="0 0 40 58" fill="none" xmlns="http://www.w3.org/2000/svg">
<path d="M39.4169 51.177L35.1221 42.2604C34.1977 40.3553 33.0028 38.9688 30.9399 39.8143L26.8706 41.3248C23.6128 42.8353 21.9896 41.3248 20.355 39.0477L13.0279 22.3757C12.1036 20.4706 12.5883 18.6783 14.6511 17.8328L20.3438 15.5558C22.4066 14.6991 22.0797 12.918 21.1554 11.013L16.2744 1.9273C15.35 0.0222403 13.4563 -0.439933 11.3934 0.405506C7.26764 2.10766 3.85206 4.77925 1.63138 8.7359C-1.07403 13.5718 0.278672 20.3015 0.819754 23.1309C1.36084 25.9603 3.25462 30.9202 5.70076 36.0042C8.1469 41.0993 10.2887 45.1011 12.2163 47.3669C14.1326 49.6326 18.7318 55.8325 24.4244 57.219C29.0913 58.3463 34.1301 57.3994 38.2558 55.6973C40.33 54.8856 40.33 53.0933 39.4169 51.177Z" fill="#B54D6C"/>
</svg>
