<svg width="53" height="53" viewBox="0 0 53 53" fill="none" xmlns="http://www.w3.org/2000/svg">
<path d="M48.75 20.625H31.875V3.75C31.875 1.6793 30.1957 0 28.125 0H24.375C22.3043 0 20.625 1.6793 20.625 3.75V20.625H3.75C1.6793 20.625 0 22.3043 0 24.375V28.125C0 30.1957 1.6793 31.875 3.75 31.875H20.625V48.75C20.625 50.8207 22.3043 52.5 24.375 52.5H28.125C30.1957 52.5 31.875 50.8207 31.875 48.75V31.875H48.75C50.8207 31.875 52.5 30.1957 52.5 28.125V24.375C52.5 22.3043 50.8207 20.625 48.75 20.625Z" fill="#9B3B55"/>
</svg>
